STARTFONT 2.1
FONT -Cronyx-Times-Medium-R-Normal--24-240-75-75-P-124-KOI8-C
SIZE 24 72 72
FONTBOUNDINGBOX 23 26 0 -6
STARTPROPERTIES 23
DEFAULT_CHAR 32
FONT_ASCENT 21
FONT_DESCENT 6
SPACING "P"
FONTNAME_REGISTRY ""
FOUNDRY "Cronyx"
FAMILY_NAME "Times"
WEIGHT_NAME "Medium"
SLANT "R"
SETWIDTH_NAME "Normal"
ADD_STYLE_NAME ""
AVERAGE_WIDTH 124
CHARSET_REGISTRY "KOI8"
CHARSET_ENCODING "C"
PIXEL_SIZE 24
POINT_SIZE 240
RESOLUTION_X 75
RESOLUTION_Y 75
COPYRIGHT "Copyright (C) 1990, 1991 EWT Consulting, Portions Copyright (C) 1996-1997 by Andrey A. Chernov, Moscow, Russia."
_XMBDFED_INFO "Edited with xmbdfed 3.8."
_XFREE86_GLYPH_RANGES "3_10 26_27 30_255"
X_HEIGHT 12
CAP_HEIGHT 17
ENDPROPERTIES
CHARS 236
STARTCHAR multi
ENCODING 3
SWIDTH 416 0
DWIDTH 10 0
BBX 8 8 2 2
BITMAP
C3
E7
7E
3C
3C
7E
E7
C3
ENDCHAR
STARTCHAR divide
ENCODING 4
SWIDTH 500 0
DWIDTH 12 0
BBX 10 12 1 0
BITMAP
0C00
1E00
0C00
0000
0000
FFC0
FFC0
0000
0000
0C00
1E00
0C00
ENDCHAR
STARTCHAR promille
ENCODING 5
SWIDTH 791 0
DWIDTH 19 0
BBX 18 17 1 0
BITMAP
1C2000
23E000
624000
424000
C28000
848000
850000
C90000
727380
028C40
058C40
050840
0B1840
0A1080
121080
133900
21CE00
ENDCHAR
STARTCHAR approx
ENCODING 6
SWIDTH 833 0
DWIDTH 20 0
BBX 10 9 1 2
BITMAP
3040
7CC0
CF80
8300
0000
3040
7CC0
CF80
8300
ENDCHAR
STARTCHAR degree
ENCODING 7
SWIDTH 458 0
DWIDTH 11 0
BBX 10 18 1 -6
BITMAP
E380
6180
6180
6180
6180
6180
6180
6180
6180
6380
7DC0
7900
6000
6000
6000
6000
6000
E000
ENDCHAR
STARTCHAR plusminus
ENCODING 8
SWIDTH 500 0
DWIDTH 12 0
BBX 10 11 1 1
BITMAP
0C00
0C00
0C00
0C00
FFC0
FFC0
0C00
0C00
0C00
FFC0
FFC0
ENDCHAR
STARTCHAR pilcrow
ENCODING 9
SWIDTH 500 0
DWIDTH 12 0
BBX 11 17 1 0
BITMAP
3FE0
7D80
FD80
FD80
FD80
FD80
FD80
7D80
3D80
0D80
0D80
0D80
0D80
0D80
0D80
0D80
3DE0
ENDCHAR
STARTCHAR ddagger
ENCODING 10
SWIDTH 458 0
DWIDTH 11 0
BBX 10 17 1 0
BITMAP
0C00
1E00
0C00
2D00
FFC0
FFC0
2D00
0C00
0C00
0C00
2D00
FFC0
FFC0
2D00
0C00
1E00
0C00
ENDCHAR
STARTCHAR lessequal
ENCODING 26
SWIDTH 500 0
DWIDTH 12 0
BBX 10 13 1 0
BITMAP
0040
01C0
0780
1E00
7800
E000
E000
7800
1E00
0780
01C0
FFC0
FFC0
ENDCHAR
STARTCHAR greaterequal
ENCODING 27
SWIDTH 500 0
DWIDTH 12 0
BBX 10 13 1 0
BITMAP
8000
E000
7800
1E00
0780
01C0
01C0
0780
1E00
7800
E000
FFC0
FFC0
ENDCHAR
STARTCHAR currency
ENCODING 30
SWIDTH 416 0
DWIDTH 10 0
BBX 9 12 1 0
BITMAP
C180
4100
3E00
2200
4100
4100
4100
4100
2200
3E00
4100
C180
ENDCHAR
STARTCHAR twosuperior
ENCODING 31
SWIDTH 291 0
DWIDTH 7 0
BBX 5 10 1 7
BITMAP
70
98
18
18
30
20
40
88
F8
F8
ENDCHAR
STARTCHAR space
ENCODING 32
SWIDTH 208 0
DWIDTH 5 0
BBX 0 0 0 0
BITMAP
ENDCHAR
STARTCHAR exclam
ENCODING 33
SWIDTH 208 0
DWIDTH 5 0
BBX 2 17 2 0
BITMAP
C0
C0
C0
C0
C0
C0
C0
C0
C0
C0
C0
C0
00
00
C0
C0
C0
ENDCHAR
STARTCHAR quotedbl
ENCODING 34
SWIDTH 291 0
DWIDTH 7 0
BBX 5 5 1 12
BITMAP
D8
D8
D8
D8
D8
ENDCHAR
STARTCHAR numbersign
ENCODING 35
SWIDTH 625 0
DWIDTH 15 0
BBX 13 17 1 0
BITMAP
0330
0330
0220
0660
0660
0440
7FF8
0CC0
0880
1980
FFF0
1100
3300
3300
2200
6600
6600
ENDCHAR
STARTCHAR dollar
ENCODING 36
SWIDTH 416 0
DWIDTH 10 0
BBX 9 21 1 -3
BITMAP
0800
0800
3F00
6B00
C900
C900
C800
E800
7800
7E00
1F00
0B80
0B80
8980
8980
C900
EB00
BC00
0800
0800
0800
ENDCHAR
STARTCHAR percent
ENCODING 37
SWIDTH 750 0
DWIDTH 18 0
BBX 16 17 1 0
BITMAP
1C10
23F0
6220
4220
C240
8440
8480
C880
710E
0111
0231
0221
0461
0442
0842
0864
1038
ENDCHAR
STARTCHAR ampersand
ENCODING 38
SWIDTH 666 0
DWIDTH 16 0
BBX 14 17 1 0
BITMAP
0700
0C80
1880
1880
1880
1900
1E78
0C30
1C20
2620
4620
C340
C380
C180
E1C0
E2E4
7C78
ENDCHAR
STARTCHAR quotesingle
ENCODING 39
SWIDTH 208 0
DWIDTH 5 0
BBX 2 5 1 12
BITMAP
C0
C0
C0
C0
C0
ENDCHAR
STARTCHAR parenleft
ENCODING 40
SWIDTH 333 0
DWIDTH 8 0
BBX 6 23 1 -6
BITMAP
04
08
10
30
20
60
60
C0
C0
C0
C0
C0
C0
C0
C0
C0
60
60
20
30
10
08
04
ENDCHAR
STARTCHAR parenright
ENCODING 41
SWIDTH 333 0
DWIDTH 8 0
BBX 6 23 1 -6
BITMAP
80
40
20
30
10
18
18
0C
0C
0C
0C
0C
0C
0C
0C
0C
18
18
10
30
20
40
80
ENDCHAR
STARTCHAR asterisk
ENCODING 42
SWIDTH 416 0
DWIDTH 10 0
BBX 8 9 1 8
BITMAP
18
18
DB
FF
18
FF
DB
18
18
ENDCHAR
STARTCHAR plus
ENCODING 43
SWIDTH 500 0
DWIDTH 12 0
BBX 10 12 1 0
BITMAP
0C00
0C00
0C00
0C00
0C00
FFC0
FFC0
0C00
0C00
0C00
0C00
0C00
ENDCHAR
STARTCHAR comma
ENCODING 44
SWIDTH 208 0
DWIDTH 5 0
BBX 3 7 0 -4
BITMAP
60
60
60
20
20
40
80
ENDCHAR
STARTCHAR hyphen
ENCODING 45
SWIDTH 291 0
DWIDTH 7 0
BBX 6 2 0 5
BITMAP
FC
FC
ENDCHAR
STARTCHAR period
ENCODING 46
SWIDTH 208 0
DWIDTH 5 0
BBX 2 3 1 0
BITMAP
C0
C0
C0
ENDCHAR
STARTCHAR slash
ENCODING 47
SWIDTH 250 0
DWIDTH 6 0
BBX 6 20 0 -3
BITMAP
04
04
0C
08
08
08
18
10
10
10
30
20
20
20
60
40
40
40
C0
80
ENDCHAR
STARTCHAR zero
ENCODING 48
SWIDTH 416 0
DWIDTH 10 0
BBX 9 17 0 0
BITMAP
1C00
2200
6300
4100
C180
C180
C180
C180
C180
C180
C180
C180
C180
4100
6300
2200
1C00
ENDCHAR
STARTCHAR one
ENCODING 49
SWIDTH 416 0
DWIDTH 10 0
BBX 7 17 1 0
BITMAP
08
18
38
D8
18
18
18
18
18
18
18
18
18
18
18
18
7E
ENDCHAR
STARTCHAR two
ENCODING 50
SWIDTH 416 0
DWIDTH 10 0
BBX 9 17 0 0
BITMAP
3C00
7E00
4700
8300
8300
0300
0300
0600
0600
0C00
0800
1800
1000
2080
4080
7F80
FF00
ENDCHAR
STARTCHAR three
ENCODING 51
SWIDTH 416 0
DWIDTH 10 0
BBX 9 17 0 0
BITMAP
3C00
6E00
8700
0300
0300
0200
0600
1F00
0300
0380
0180
0180
0180
0100
C300
E200
7C00
ENDCHAR
STARTCHAR four
ENCODING 52
SWIDTH 416 0
DWIDTH 10 0
BBX 9 17 0 0
BITMAP
0600
0600
0E00
0E00
1600
1600
2600
2600
4600
4600
8600
FF80
FF80
0600
0600
0600
0600
ENDCHAR
STARTCHAR five
ENCODING 53
SWIDTH 416 0
DWIDTH 10 0
BBX 9 17 0 0
BITMAP
1F80
1F80
3000
2000
2000
7800
7E00
0F00
0300
0380
0180
0180
0180
0100
C300
E600
7800
ENDCHAR
STARTCHAR six
ENCODING 54
SWIDTH 416 0
DWIDTH 10 0
BBX 9 17 0 0
BITMAP
0700
1800
3000
3000
6000
6000
5C00
E300
C300
C180
C180
C180
C180
C180
6100
6200
1C00
ENDCHAR
STARTCHAR seven
ENCODING 55
SWIDTH 416 0
DWIDTH 10 0
BBX 9 17 0 0
BITMAP
7F80
7F80
C100
8100
8300
0200
0200
0200
0600
0400
0400
0400
0C00
0800
0800
0800
1800
ENDCHAR
STARTCHAR eight
ENCODING 56
SWIDTH 416 0
DWIDTH 10 0
BBX 9 17 0 0
BITMAP
1C00
2200
6300
6100
6100
6300
3200
1C00
2E00
6300
4380
C180
C180
C180
4300
6300
1C00
ENDCHAR
STARTCHAR nine
ENCODING 57
SWIDTH 416 0
DWIDTH 10 0
BBX 9 17 0 0
BITMAP
1C00
2300
4300
C180
C180
C180
C180
C180
6180
6380
1D00
0300
0300
0600
0600
0C00
7000
ENDCHAR
STARTCHAR colon
ENCODING 58
SWIDTH 208 0
DWIDTH 5 0
BBX 2 12 1 0
BITMAP
C0
C0
C0
00
00
00
00
00
00
C0
C0
C0
ENDCHAR
STARTCHAR semicolon
ENCODING 59
SWIDTH 208 0
DWIDTH 5 0
BBX 3 16 0 -4
BITMAP
60
60
60
00
00
00
00
00
00
60
60
60
20
20
40
80
ENDCHAR
STARTCHAR less
ENCODING 60
SWIDTH 500 0
DWIDTH 12 0
BBX 10 12 1 0
BITMAP
0040
01C0
0780
1E00
7800
E000
E000
7800
1E00
0780
01C0
0040
ENDCHAR
STARTCHAR equal
ENCODING 61
SWIDTH 500 0
DWIDTH 12 0
BBX 10 6 1 3
BITMAP
FFC0
FFC0
0000
0000
FFC0
FFC0
ENDCHAR
STARTCHAR greater
ENCODING 62
SWIDTH 500 0
DWIDTH 12 0
BBX 10 12 1 0
BITMAP
8000
E000
7800
1E00
0780
01C0
01C0
0780
1E00
7800
E000
8000
ENDCHAR
STARTCHAR question
ENCODING 63
SWIDTH 375 0
DWIDTH 9 0
BBX 7 17 1 0
BITMAP
38
4C
86
C6
C6
06
0C
0C
18
10
20
20
00
00
30
30
30
ENDCHAR
STARTCHAR at
ENCODING 64
SWIDTH 833 0
DWIDTH 20 0
BBX 17 20 2 -3
BITMAP
03F000
0E1C00
180600
300300
200100
61D980
437880
C61880
C61880
CC1880
CC3080
CC3180
CC3100
CEF300
C7DE00
600000
600200
300600
1C1C00
07F000
ENDCHAR
STARTCHAR A
ENCODING 65
SWIDTH 666 0
DWIDTH 16 0
BBX 16 17 0 0
BITMAP
0080
0180
0180
03C0
02C0
0260
0460
0460
0830
0830
0FF8
1018
1018
200C
200C
600E
F83F
ENDCHAR
STARTCHAR B
ENCODING 66
SWIDTH 583 0
DWIDTH 14 0
BBX 12 17 1 0
BITMAP
FF80
30C0
3060
3060
3060
3060
3060
30C0
3FC0
3060
3070
3030
3030
3030
3070
3060
FFC0
ENDCHAR
STARTCHAR C
ENCODING 67
SWIDTH 625 0
DWIDTH 15 0
BBX 13 17 1 0
BITMAP
0FC8
3878
3018
6008
6008
E000
C000
C000
C000
C000
C000
E000
6000
6000
3010
3C60
0FC0
ENDCHAR
STARTCHAR D
ENCODING 68
SWIDTH 666 0
DWIDTH 16 0
BBX 14 17 1 0
BITMAP
FFC0
3070
3030
3018
3018
301C
300C
300C
300C
300C
300C
301C
3018
3018
3030
3070
FFC0
ENDCHAR
STARTCHAR E
ENCODING 69
SWIDTH 625 0
DWIDTH 15 0
BBX 13 17 1 0
BITMAP
FFF0
3030
3010
3010
3000
3020
3020
3FE0
3020
3020
3000
3000
3008
3008
3008
3018
FFF8
ENDCHAR
STARTCHAR F
ENCODING 70
SWIDTH 583 0
DWIDTH 14 0
BBX 12 17 1 0
BITMAP
FFF0
3030
3010
3010
3000
3040
3040
3FC0
3040
3040
3000
3000
3000
3000
3000
3000
FC00
ENDCHAR
STARTCHAR G
ENCODING 71
SWIDTH 666 0
DWIDTH 16 0
BBX 15 17 1 0
BITMAP
0FC8
3878
3018
6008
6008
E000
C000
C000
C07E
C018
C018
C018
E018
6018
7018
3870
0FC0
ENDCHAR
STARTCHAR H
ENCODING 72
SWIDTH 708 0
DWIDTH 17 0
BBX 15 17 1 0
BITMAP
FC7E
3018
3018
3018
3018
3018
3018
3018
3FF8
3018
3018
3018
3018
3018
3018
3018
FC7E
ENDCHAR
STARTCHAR I
ENCODING 73
SWIDTH 333 0
DWIDTH 8 0
BBX 6 17 1 0
BITMAP
FC
30
30
30
30
30
30
30
30
30
30
30
30
30
30
30
FC
ENDCHAR
STARTCHAR J
ENCODING 74
SWIDTH 458 0
DWIDTH 11 0
BBX 9 17 1 0
BITMAP
1F80
0600
0600
0600
0600
0600
0600
0600
0600
0600
0600
0600
0600
0600
E600
E400
7800
ENDCHAR
STARTCHAR K
ENCODING 75
SWIDTH 666 0
DWIDTH 16 0
BBX 14 17 1 0
BITMAP
FC7C
3030
3020
3040
3080
3100
3200
3400
3E00
3700
3380
31C0
30C0
30E0
3070
3038
FC7C
ENDCHAR
STARTCHAR L
ENCODING 76
SWIDTH 583 0
DWIDTH 14 0
BBX 12 17 1 0
BITMAP
FC00
3000
3000
3000
3000
3000
3000
3000
3000
3000
3000
3000
3010
3010
3010
3030
FFF0
ENDCHAR
STARTCHAR M
ENCODING 77
SWIDTH 833 0
DWIDTH 20 0
BBX 18 17 1 0
BITMAP
780780
380700
380700
380B00
2C0B00
2C0B00
2C1300
261300
261300
262300
232300
232300
234300
21C300
21C300
218300
F88FC0
ENDCHAR
STARTCHAR N
ENCODING 78
SWIDTH 666 0
DWIDTH 16 0
BBX 14 17 1 0
BITMAP
F07C
3810
3810
2C10
2C10
2610
2610
2310
2310
2190
2190
20D0
20D0
2070
2070
2030
F830
ENDCHAR
STARTCHAR O
ENCODING 79
SWIDTH 666 0
DWIDTH 16 0
BBX 14 17 1 0
BITMAP
0FC0
3870
3030
6018
6018
E01C
C00C
C00C
C00C
C00C
C00C
E01C
6018
6018
3030
3870
0FC0
ENDCHAR
STARTCHAR P
ENCODING 80
SWIDTH 541 0
DWIDTH 13 0
BBX 11 17 1 0
BITMAP
FF80
30C0
30E0
3060
3060
3060
30E0
30C0
3F80
3000
3000
3000
3000
3000
3000
3000
FC00
ENDCHAR
STARTCHAR Q
ENCODING 81
SWIDTH 666 0
DWIDTH 16 0
BBX 14 19 1 -2
BITMAP
0FC0
3870
3030
6018
6018
E01C
C00C
C00C
C00C
C00C
C00C
E01C
6018
6018
3030
3870
0FC0
01E0
007C
ENDCHAR
STARTCHAR R
ENCODING 82
SWIDTH 666 0
DWIDTH 16 0
BBX 14 17 1 0
BITMAP
FFC0
3060
3030
3030
3030
3030
3030
3060
3FC0
31C0
30C0
30E0
3060
3070
3030
3038
FC1C
ENDCHAR
STARTCHAR S
ENCODING 83
SWIDTH 458 0
DWIDTH 11 0
BBX 9 17 1 0
BITMAP
3D00
6700
C300
C100
C000
E000
7000
3C00
1E00
0700
0380
0180
8180
8180
C180
E300
BE00
ENDCHAR
STARTCHAR T
ENCODING 84
SWIDTH 583 0
DWIDTH 14 0
BBX 12 17 1 0
BITMAP
FFF0
C630
8610
8610
0600
0600
0600
0600
0600
0600
0600
0600
0600
0600
0600
0600
1F80
ENDCHAR
STARTCHAR U
ENCODING 85
SWIDTH 708 0
DWIDTH 17 0
BBX 15 17 1 0
BITMAP
FC3E
3008
3008
3008
3008
3008
3008
3008
3008
3008
3008
3008
3008
3018
1810
1C70
07C0
ENDCHAR
STARTCHAR V
ENCODING 86
SWIDTH 708 0
DWIDTH 17 0
BBX 15 17 1 0
BITMAP
FC1E
700C
3008
3008
1810
1810
1810
0C20
0C20
0620
0640
0640
03C0
0380
0380
0100
0100
ENDCHAR
STARTCHAR W
ENCODING 87
SWIDTH 958 0
DWIDTH 23 0
BBX 21 17 1 0
BITMAP
F9F8F8
706020
306020
306040
183040
183040
187080
185880
0C5880
0C9880
0C8D00
068D00
070F00
070700
030600
020200
020200
ENDCHAR
STARTCHAR X
ENCODING 88
SWIDTH 708 0
DWIDTH 17 0
BBX 15 17 1 0
BITMAP
FE7E
3818
1810
0C20
0C20
0640
0640
0380
0380
03C0
04C0
0460
0860
0830
1038
3018
FC7E
ENDCHAR
STARTCHAR Y
ENCODING 89
SWIDTH 666 0
DWIDTH 16 0
BBX 14 17 1 0
BITMAP
FC3C
7018
3010
1820
1820
0C40
0C40
0680
0780
0300
0300
0300
0300
0300
0300
0300
0FC0
ENDCHAR
STARTCHAR Z
ENCODING 90
SWIDTH 583 0
DWIDTH 14 0
BBX 12 17 1 0
BITMAP
FFE0
C0C0
80C0
8180
0180
0300
0300
0600
0E00
0C00
1800
1800
3010
3010
6010
6030
FFF0
ENDCHAR
STARTCHAR bracketleft
ENCODING 91
SWIDTH 291 0
DWIDTH 7 0
BBX 5 23 1 -6
BITMAP
F8
C0
C0
C0
C0
C0
C0
C0
C0
C0
C0
C0
C0
C0
C0
C0
C0
C0
C0
C0
C0
C0
F8
ENDCHAR
STARTCHAR backslash
ENCODING 92
SWIDTH 250 0
DWIDTH 6 0
BBX 6 20 0 -3
BITMAP
80
80
C0
40
40
40
60
20
20
20
30
10
10
10
18
08
08
08
0C
04
ENDCHAR
STARTCHAR bracketright
ENCODING 93
SWIDTH 291 0
DWIDTH 7 0
BBX 5 23 1 -6
BITMAP
F8
18
18
18
18
18
18
18
18
18
18
18
18
18
18
18
18
18
18
18
18
18
F8
ENDCHAR
STARTCHAR asciicircum
ENCODING 94
SWIDTH 416 0
DWIDTH 10 0
BBX 10 6 0 11
BITMAP
0C00
1E00
3300
6180
C0C0
8040
ENDCHAR
STARTCHAR underscore
ENCODING 95
SWIDTH 416 0
DWIDTH 10 0
BBX 10 2 0 -4
BITMAP
FFC0
FFC0
ENDCHAR
STARTCHAR grave
ENCODING 96
SWIDTH 416 0
DWIDTH 10 0
BBX 4 3 3 13
BITMAP
C0
60
30
ENDCHAR
STARTCHAR a
ENCODING 97
SWIDTH 416 0
DWIDTH 10 0
BBX 9 12 1 0
BITMAP
3C00
6200
C300
4300
0F00
3B00
6300
C300
C300
C300
E700
7B80
ENDCHAR
STARTCHAR b
ENCODING 98
SWIDTH 458 0
DWIDTH 11 0
BBX 10 18 1 0
BITMAP
2000
E000
6000
6000
6000
6000
6F00
7180
6180
60C0
60C0
60C0
60C0
60C0
60C0
6180
7180
1E00
ENDCHAR
STARTCHAR c
ENCODING 99
SWIDTH 375 0
DWIDTH 9 0
BBX 8 12 1 0
BITMAP
1E
63
63
C3
C0
C0
C0
C0
C0
60
63
3E
ENDCHAR
STARTCHAR d
ENCODING 100
SWIDTH 458 0
DWIDTH 11 0
BBX 10 18 1 0
BITMAP
0080
0380
0180
0180
0180
0180
1D80
6380
6180
C180
C180
C180
C180
C180
C180
6180
6380
3DC0
ENDCHAR
STARTCHAR e
ENCODING 101
SWIDTH 416 0
DWIDTH 10 0
BBX 9 12 1 0
BITMAP
1E00
6300
6300
C180
C180
FF80
C000
C000
C000
6000
6300
3E00
ENDCHAR
STARTCHAR f
ENCODING 102
SWIDTH 291 0
DWIDTH 7 0
BBX 6 17 1 0
BITMAP
18
2C
6C
60
60
60
F8
60
60
60
60
60
60
60
60
60
F8
ENDCHAR
STARTCHAR g
ENCODING 103
SWIDTH 416 0
DWIDTH 10 0
BBX 10 18 0 -6
BITMAP
1CC0
2780
6300
6300
6300
6300
6300
3600
1C00
3000
6000
7F00
3FC0
40C0
C040
C040
6080
3F00
ENDCHAR
STARTCHAR h
ENCODING 104
SWIDTH 458 0
DWIDTH 11 0
BBX 10 18 1 0
BITMAP
2000
E000
6000
6000
6000
6000
6700
6F80
7180
6180
6180
6180
6180
6180
6180
6180
6180
F3C0
ENDCHAR
STARTCHAR i
ENCODING 105
SWIDTH 208 0
DWIDTH 5 0
BBX 4 18 1 0
BITMAP
60
F0
60
00
00
00
20
E0
60
60
60
60
60
60
60
60
60
F0
ENDCHAR
STARTCHAR j
ENCODING 106
SWIDTH 250 0
DWIDTH 6 0
BBX 6 24 0 -6
BITMAP
18
3C
18
00
00
00
08
38
18
18
18
18
18
18
18
18
18
18
18
18
18
D8
D8
70
ENDCHAR
STARTCHAR k
ENCODING 107
SWIDTH 416 0
DWIDTH 10 0
BBX 9 18 1 0
BITMAP
2000
E000
6000
6000
6000
6000
6180
6180
6200
6400
6800
7C00
6C00
6600
6600
6300
6300
F380
ENDCHAR
STARTCHAR l
ENCODING 108
SWIDTH 208 0
DWIDTH 5 0
BBX 4 18 1 0
BITMAP
20
E0
60
60
60
60
60
60
60
60
60
60
60
60
60
60
60
F0
ENDCHAR
STARTCHAR m
ENCODING 109
SWIDTH 708 0
DWIDTH 17 0
BBX 16 12 1 0
BITMAP
271C
EFBE
71C6
6186
6186
6186
6186
6186
6186
6186
6186
F3CF
ENDCHAR
STARTCHAR n
ENCODING 110
SWIDTH 458 0
DWIDTH 11 0
BBX 10 12 1 0
BITMAP
2700
EF80
7180
6180
6180
6180
6180
6180
6180
6180
6180
F3C0
ENDCHAR
STARTCHAR o
ENCODING 111
SWIDTH 416 0
DWIDTH 10 0
BBX 9 12 1 0
BITMAP
1E00
6300
6300
C180
C180
C180
C180
C180
C180
6300
6300
3C00
ENDCHAR
STARTCHAR p
ENCODING 112
SWIDTH 458 0
DWIDTH 11 0
BBX 10 18 1 -6
BITMAP
2F00
F180
6180
60C0
60C0
60C0
60C0
60C0
60C0
6180
7180
6E00
6000
6000
6000
6000
6000
F800
ENDCHAR
STARTCHAR q
ENCODING 113
SWIDTH 458 0
DWIDTH 11 0
BBX 10 18 1 -6
BITMAP
1E80
6380
6180
C180
C180
C180
C180
C180
C180
6180
6380
3D80
0180
0180
0180
0180
0180
07C0
ENDCHAR
STARTCHAR r
ENCODING 114
SWIDTH 291 0
DWIDTH 7 0
BBX 6 12 1 0
BITMAP
2C
FC
64
60
60
60
60
60
60
60
60
F8
ENDCHAR
STARTCHAR s
ENCODING 115
SWIDTH 333 0
DWIDTH 8 0
BBX 7 12 1 0
BITMAP
34
4C
C4
C0
E0
78
1C
0E
86
86
E4
B8
ENDCHAR
STARTCHAR t
ENCODING 116
SWIDTH 291 0
DWIDTH 7 0
BBX 6 16 1 0
BITMAP
20
20
60
60
F8
60
60
60
60
60
60
60
60
60
6C
38
ENDCHAR
STARTCHAR u
ENCODING 117
SWIDTH 458 0
DWIDTH 11 0
BBX 10 12 1 0
BITMAP
E380
6180
6180
6180
6180
6180
6180
6180
6180
6380
7DC0
3900
ENDCHAR
STARTCHAR v
ENCODING 118
SWIDTH 458 0
DWIDTH 11 0
BBX 10 12 1 0
BITMAP
F1C0
6080
6080
3100
3100
3100
1A00
1A00
1A00
0C00
0C00
0C00
ENDCHAR
STARTCHAR w
ENCODING 119
SWIDTH 625 0
DWIDTH 15 0
BBX 14 12 1 0
BITMAP
F79C
6308
6308
2110
3190
3190
3390
1AE0
1CE0
1CE0
0840
0840
ENDCHAR
STARTCHAR x
ENCODING 120
SWIDTH 416 0
DWIDTH 10 0
BBX 9 12 1 0
BITMAP
F380
6100
3200
3200
1C00
1800
0C00
1C00
2600
2600
4300
E780
ENDCHAR
STARTCHAR y
ENCODING 121
SWIDTH 458 0
DWIDTH 11 0
BBX 10 18 1 -6
BITMAP
F1C0
6080
6080
3100
3100
3100
1A00
1A00
1A00
0C00
0C00
0C00
0800
0800
0800
1000
F000
6000
ENDCHAR
STARTCHAR z
ENCODING 122
SWIDTH 375 0
DWIDTH 9 0
BBX 8 12 1 0
BITMAP
FF
86
86
0C
0C
18
18
30
30
61
61
FF
ENDCHAR
STARTCHAR braceleft
ENCODING 123
SWIDTH 291 0
DWIDTH 7 0
BBX 6 23 0 -6
BITMAP
0C
18
30
30
30
30
30
30
30
30
60
C0
60
30
30
30
30
30
30
30
30
18
0C
ENDCHAR
STARTCHAR bar
ENCODING 124
SWIDTH 208 0
DWIDTH 5 0
BBX 2 22 1 -5
BITMAP
C0
C0
C0
C0
C0
C0
C0
C0
C0
C0
C0
C0
C0
C0
C0
C0
C0
C0
C0
C0
C0
C0
ENDCHAR
STARTCHAR braceright
ENCODING 125
SWIDTH 291 0
DWIDTH 7 0
BBX 6 23 0 -6
BITMAP
C0
60
30
30
30
30
30
30
30
30
18
0C
18
30
30
30
30
30
30
30
30
60
C0
ENDCHAR
STARTCHAR asciitilde
ENCODING 126
SWIDTH 458 0
DWIDTH 11 0
BBX 10 4 1 13
BITMAP
3040
7CC0
CF80
8300
ENDCHAR
STARTCHAR not
ENCODING 127
SWIDTH 291 0
DWIDTH 7 0
BBX 6 4 0 3
BITMAP
FC
FC
0C
0C
ENDCHAR
STARTCHAR afii10051
ENCODING 128
SWIDTH 458 0
DWIDTH 11 0
BBX 10 18 1 0
BITMAP
FF80
FF80
D980
9880
1800
1800
1980
1BC0
1CC0
18C0
18C0
18C0
18C0
18C0
1AC0
1AC0
1BC0
3980
ENDCHAR
STARTCHAR afii10052
ENCODING 129
SWIDTH 541 0
DWIDTH 13 0
BBX 11 20 1 0
BITMAP
0300
0600
0C00
FFE0
3060
3020
3020
3000
3000
3000
3000
3000
3000
3000
3000
3000
3000
3000
3000
FC00
ENDCHAR
STARTCHAR cedilla
ENCODING 130
SWIDTH 208 0
DWIDTH 5 0
BBX 5 5 0 -4
BITMAP
40
70
18
18
F0
ENDCHAR
STARTCHAR afii10100
ENCODING 131
SWIDTH 375 0
DWIDTH 9 0
BBX 8 16 1 0
BITMAP
06
0C
18
00
FF
63
61
61
60
60
60
60
60
60
60
F0
ENDCHAR
STARTCHAR quotedblbase
ENCODING 132
SWIDTH 291 0
DWIDTH 7 0
BBX 5 5 1 -2
BITMAP
D8
D8
48
48
90
ENDCHAR
STARTCHAR ellipsis
ENCODING 133
SWIDTH 500 0
DWIDTH 12 0
BBX 10 3 1 0
BITMAP
CCC0
CCC0
CCC0
ENDCHAR
STARTCHAR dagger
ENCODING 134
SWIDTH 458 0
DWIDTH 11 0
BBX 10 17 1 0
BITMAP
0C00
1E00
0C00
2D00
FFC0
FFC0
2D00
0C00
0C00
0C00
0C00
1E00
1E00
0C00
0C00
0C00
0C00
ENDCHAR
STARTCHAR section
ENCODING 135
SWIDTH 291 0
DWIDTH 7 0
BBX 6 17 1 0
BITMAP
38
4C
84
80
C0
70
58
8C
84
C4
68
38
0C
04
84
C8
70
ENDCHAR
STARTCHAR Euro
ENCODING 136
SWIDTH 583 0
DWIDTH 14 0
BBX 14 17 0 0
BITMAP
07E4
1C3C
180C
3004
3004
7000
FE00
FE00
6000
FE00
FE00
7000
3000
3000
1808
1E30
07E0
ENDCHAR
STARTCHAR dieresis
ENCODING 137
SWIDTH 291 0
DWIDTH 7 0
BBX 6 3 1 14
BITMAP
CC
CC
CC
ENDCHAR
STARTCHAR afii10058
ENCODING 138
SWIDTH 791 0
DWIDTH 19 0
BBX 17 17 1 0
BITMAP
3FF800
086000
086000
086000
086000
086000
086000
086000
087E00
086300
086180
086180
086180
086180
686180
E86300
71FE00
ENDCHAR
STARTCHAR guilsinglleft
ENCODING 139
SWIDTH 500 0
DWIDTH 12 0
BBX 10 12 1 0
BITMAP
0040
01C0
0780
1E00
7800
E000
E000
7800
1E00
0780
01C0
0040
ENDCHAR
STARTCHAR afii10059
ENCODING 140
SWIDTH 750 0
DWIDTH 18 0
BBX 17 17 1 0
BITMAP
FDF800
306000
306000
306000
306000
306000
306000
306000
3FFE00
306300
306180
306180
306180
306180
306180
306300
FDFE00
ENDCHAR
STARTCHAR afii10061
ENCODING 141
SWIDTH 666 0
DWIDTH 16 0
BBX 15 20 1 0
BITMAP
0060
00C0
0180
FC18
303C
3068
30C0
3180
3300
3600
3C00
3C00
3600
3300
3180
30C0
3060
3030
3018
FC3E
ENDCHAR
STARTCHAR afii10060
ENCODING 142
SWIDTH 458 0
DWIDTH 11 0
BBX 10 18 1 0
BITMAP
FE00
FE00
B200
3000
3000
3000
3300
3780
3980
3180
3180
3180
3180
3180
3180
3180
3180
7BC0
ENDCHAR
STARTCHAR afii10145
ENCODING 143
SWIDTH 708 0
DWIDTH 17 0
BBX 15 20 1 -3
BITMAP
FC7E
3018
3018
3018
3018
3018
3018
3018
3018
3018
3018
3018
3018
3018
3018
3018
FFFE
0380
0380
0100
ENDCHAR
STARTCHAR afii10099
ENCODING 144
SWIDTH 416 0
DWIDTH 10 0
BBX 9 20 1 -2
BITMAP
2000
7000
FC00
FC00
6000
6000
6700
6F80
7180
6180
6180
6180
6180
6180
6180
6180
6180
F300
0300
0600
ENDCHAR
STARTCHAR quoteleft
ENCODING 145
SWIDTH 208 0
DWIDTH 5 0
BBX 2 5 1 12
BITMAP
40
80
80
C0
C0
ENDCHAR
STARTCHAR quoteright
ENCODING 146
SWIDTH 208 0
DWIDTH 5 0
BBX 2 5 1 12
BITMAP
C0
C0
40
40
80
ENDCHAR
STARTCHAR quotedblleft
ENCODING 147
SWIDTH 291 0
DWIDTH 7 0
BBX 5 5 1 12
BITMAP
48
90
90
D8
D8
ENDCHAR
STARTCHAR quotedblright
ENCODING 148
SWIDTH 291 0
DWIDTH 7 0
BBX 5 5 1 12
BITMAP
D8
D8
48
48
90
ENDCHAR
STARTCHAR bullet
ENCODING 149
SWIDTH 291 0
DWIDTH 7 0
BBX 6 7 1 2
BITMAP
30
78
FC
FC
FC
78
30
ENDCHAR
STARTCHAR endash
ENCODING 150
SWIDTH 375 0
DWIDTH 9 0
BBX 9 2 0 5
BITMAP
FF80
FF80
ENDCHAR
STARTCHAR emdash
ENCODING 151
SWIDTH 458 0
DWIDTH 11 0
BBX 11 2 0 5
BITMAP
FFE0
FFE0
ENDCHAR
STARTCHAR sterling
ENCODING 152
SWIDTH 583 0
DWIDTH 14 0
BBX 13 17 1 0
BITMAP
0780
09C0
18C0
1840
1840
1820
1800
1800
1800
3D00
3E00
1800
1800
1800
3E08
7F30
83C0
ENDCHAR
STARTCHAR periodcentered
ENCODING 153
SWIDTH 208 0
DWIDTH 5 0
BBX 4 3 1 4
BITMAP
60
F0
60
ENDCHAR
STARTCHAR afii10106
ENCODING 154
SWIDTH 625 0
DWIDTH 15 0
BBX 14 12 1 0
BITMAP
1FC0
0980
0980
0980
0980
09F0
0998
098C
098C
698C
E998
73F0
ENDCHAR
STARTCHAR guilsinglright
ENCODING 155
SWIDTH 500 0
DWIDTH 12 0
BBX 10 12 1 0
BITMAP
8000
E000
7800
1E00
0780
01C0
01C0
0780
1E00
7800
E000
8000
ENDCHAR
STARTCHAR afii10107
ENCODING 156
SWIDTH 583 0
DWIDTH 14 0
BBX 13 12 1 0
BITMAP
F780
6300
6300
6300
6300
7FE0
6330
6318
6318
6318
6330
F7E0
ENDCHAR
STARTCHAR afii10109
ENCODING 157
SWIDTH 458 0
DWIDTH 11 0
BBX 10 15 1 0
BITMAP
0300
0600
0C00
F3C0
6180
6300
6600
6C00
7C00
6600
6300
6300
6180
6180
F1C0
ENDCHAR
STARTCHAR afii10108
ENCODING 158
SWIDTH 458 0
DWIDTH 11 0
BBX 10 18 1 0
BITMAP
2000
7000
FC00
FC00
6000
6000
6700
6F80
7180
6180
6180
6180
6180
6180
6180
6180
6180
F3C0
ENDCHAR
STARTCHAR afii10193
ENCODING 159
SWIDTH 458 0
DWIDTH 11 0
BBX 10 15 1 -3
BITMAP
F3C0
6180
6180
6180
6180
6180
6180
6180
6180
6180
6180
FFC0
00C0
0040
0040
ENDCHAR
STARTCHAR space
ENCODING 160
SWIDTH 208 0
DWIDTH 5 0
BBX 0 0 0 0
BITMAP
ENDCHAR
STARTCHAR afii10196
ENCODING 161
SWIDTH 500 0
DWIDTH 12 0
BBX 11 12 1 0
BITMAP
E000
6060
60A0
3120
3100
3100
1A00
1A00
1A00
0C00
0C00
0C00
ENDCHAR
STARTCHAR afii10194
ENCODING 162
SWIDTH 583 0
DWIDTH 14 0
BBX 13 16 1 0
BITMAP
1C00
3C00
0C00
0C00
FFC0
CCC0
8C40
0C00
0FE0
0C30
0C18
0C18
0C18
0C18
0C30
1FE0
ENDCHAR
STARTCHAR afii10071
ENCODING 163
SWIDTH 416 0
DWIDTH 10 0
BBX 9 15 1 0
BITMAP
6300
6300
0000
1E00
6300
6180
C180
C180
FF80
C000
C000
C000
6180
6300
3E00
ENDCHAR
STARTCHAR afii10101
ENCODING 164
SWIDTH 375 0
DWIDTH 9 0
BBX 8 12 1 0
BITMAP
3D
63
C1
C0
C4
FC
C4
C0
C0
C1
63
3D
ENDCHAR
STARTCHAR afii10102
ENCODING 165
SWIDTH 333 0
DWIDTH 8 0
BBX 7 12 1 0
BITMAP
34
4C
C4
C0
E0
78
1C
0E
86
86
E4
B8
ENDCHAR
STARTCHAR afii10103
ENCODING 166
SWIDTH 208 0
DWIDTH 5 0
BBX 4 18 1 0
BITMAP
60
F0
60
00
00
00
20
E0
60
60
60
60
60
60
60
60
60
F0
ENDCHAR
STARTCHAR afii10104
ENCODING 167
SWIDTH 250 0
DWIDTH 6 0
BBX 6 18 0 0
BITMAP
48
FC
48
00
00
00
10
70
30
30
30
30
30
30
30
30
30
78
ENDCHAR
STARTCHAR afii10105
ENCODING 168
SWIDTH 250 0
DWIDTH 6 0
BBX 6 24 0 -6
BITMAP
18
3C
18
00
00
00
08
38
18
18
18
18
18
18
18
18
18
18
18
18
18
D8
D8
70
ENDCHAR
STARTCHAR registered
ENCODING 169
SWIDTH 625 0
DWIDTH 15 0
BBX 14 16 0 1
BITMAP
0780
1860
2010
5F88
4CC8
8C64
8CE4
8FC4
8F04
8D84
8CC4
4CE8
5E68
2010
1860
0780
ENDCHAR
STARTCHAR trademark
ENCODING 170
SWIDTH 583 0
DWIDTH 14 0
BBX 13 7 1 10
BITMAP
FD98
FDF8
31F8
3198
3198
3198
3198
ENDCHAR
STARTCHAR guillemotleft
ENCODING 171
SWIDTH 750 0
DWIDTH 18 0
BBX 16 12 1 0
BITMAP
0041
01C7
079E
1E78
79E0
E380
E380
79E0
1E78
079E
01C7
0041
ENDCHAR
STARTCHAR afii10195
ENCODING 172
SWIDTH 416 0
DWIDTH 10 0
BBX 9 12 1 0
BITMAP
1E00
6300
6300
C180
C180
FF80
C180
C180
C180
6300
6300
3C00
ENDCHAR
STARTCHAR afii10098
ENCODING 173
SWIDTH 375 0
DWIDTH 9 0
BBX 8 15 1 0
BITMAP
01
01
03
FF
60
60
60
60
60
60
60
60
60
60
F0
ENDCHAR
STARTCHAR afii10110
ENCODING 174
SWIDTH 500 0
DWIDTH 12 0
BBX 12 21 0 -6
BITMAP
1980
0F00
0600
F8F0
3020
3040
1840
1880
1880
0C80
0D00
0D00
0600
0600
0600
0400
0400
0400
6800
7800
3000
ENDCHAR
STARTCHAR acute
ENCODING 175
SWIDTH 416 0
DWIDTH 10 0
BBX 4 3 3 13
BITMAP
30
60
C0
ENDCHAR
STARTCHAR degree
ENCODING 176
SWIDTH 291 0
DWIDTH 7 0
BBX 6 7 0 10
BITMAP
30
78
CC
CC
CC
78
30
ENDCHAR
STARTCHAR afii10148
ENCODING 177
SWIDTH 708 0
DWIDTH 17 0
BBX 16 17 1 0
BITMAP
E000
7006
300F
300B
1810
1810
1810
0C20
0C20
0620
0640
0640
03C0
0380
0380
0100
0100
ENDCHAR
STARTCHAR afii10146
ENCODING 178
SWIDTH 708 0
DWIDTH 17 0
BBX 15 20 1 0
BITMAP
1C00
3C00
0C00
FFE0
CC60
8C20
8C20
0C00
0C00
0FF8
0C0C
0C0E
0C06
0C06
0C06
0C06
0C06
0C0E
0C0C
3FF8
ENDCHAR
STARTCHAR afii10023
ENCODING 179
SWIDTH 625 0
DWIDTH 15 0
BBX 13 20 1 0
BITMAP
3060
3060
0000
FFF8
3018
3008
3008
3000
3000
3040
3FC0
3040
3000
3000
3000
3000
3008
3008
3018
FFF8
ENDCHAR
STARTCHAR afii10053
ENCODING 180
SWIDTH 625 0
DWIDTH 15 0
BBX 13 17 1 0
BITMAP
1FE8
3038
6018
6008
C008
C000
C000
C080
FF80
C080
C000
C000
C008
6008
6018
3038
1FE8
ENDCHAR
STARTCHAR afii10054
ENCODING 181
SWIDTH 458 0
DWIDTH 11 0
BBX 9 17 1 0
BITMAP
3D00
6700
C300
C100
C000
E000
7000
3C00
1E00
0700
0380
0180
8180
8180
C180
E300
BE00
ENDCHAR
STARTCHAR afii10055
ENCODING 182
SWIDTH 333 0
DWIDTH 8 0
BBX 6 17 1 0
BITMAP
FC
30
30
30
30
30
30
30
30
30
30
30
30
30
30
30
FC
ENDCHAR
STARTCHAR afii10056
ENCODING 183
SWIDTH 291 0
DWIDTH 7 0
BBX 6 20 1 0
BITMAP
CC
CC
00
FC
30
30
30
30
30
30
30
30
30
30
30
30
30
30
30
FC
ENDCHAR
STARTCHAR afii10057
ENCODING 184
SWIDTH 458 0
DWIDTH 11 0
BBX 9 17 1 0
BITMAP
1F80
0600
0600
0600
0600
0600
0600
0600
0600
0600
0600
0600
0600
0600
E600
E400
7800
ENDCHAR
STARTCHAR afii61352
ENCODING 185
SWIDTH 708 0
DWIDTH 17 0
BBX 16 17 1 0
BITMAP
F0F6
3829
3829
2C29
2C26
2620
2620
232F
2320
21A0
21A0
20E0
20E0
2060
2060
2060
F8F8
ENDCHAR
STARTCHAR cent
ENCODING 186
SWIDTH 375 0
DWIDTH 9 0
BBX 8 14 1 -1
BITMAP
08
1E
6B
6B
CB
C8
C8
C8
C8
C8
68
6B
3E
08
ENDCHAR
STARTCHAR guillemotright
ENCODING 187
SWIDTH 750 0
DWIDTH 18 0
BBX 16 12 1 0
BITMAP
8200
E380
79E0
1E78
079E
01C7
01C7
079E
1E78
79E0
E380
8200
ENDCHAR
STARTCHAR afii10147
ENCODING 188
SWIDTH 666 0
DWIDTH 16 0
BBX 14 17 1 0
BITMAP
0FC0
3870
3030
6018
6018
E01C
C00C
FFFC
FFFC
C00C
C00C
E01C
6018
6018
3030
3870
0FC0
ENDCHAR
STARTCHAR afii10050
ENCODING 189
SWIDTH 541 0
DWIDTH 13 0
BBX 11 19 1 0
BITMAP
0020
0060
FFE0
3000
3000
3000
3000
3000
3000
3000
3000
3000
3000
3000
3000
3000
3000
3000
FC00
ENDCHAR
STARTCHAR afii10062
ENCODING 190
SWIDTH 750 0
DWIDTH 18 0
BBX 16 20 1 0
BITMAP
0630
0360
01C0
FC1F
3004
3004
1808
1810
0C10
0C20
0620
0640
0380
0380
0100
0100
0200
7200
7400
3800
ENDCHAR
STARTCHAR copyright
ENCODING 191
SWIDTH 625 0
DWIDTH 15 0
BBX 14 16 0 1
BITMAP
0780
1860
2010
4748
4CC8
8844
9844
9804
9804
9804
8844
4CC8
4788
2010
1860
0780
ENDCHAR
STARTCHAR afii10096
ENCODING 192
SWIDTH 625 0
DWIDTH 15 0
BBX 14 12 1 0
BITMAP
F0F0
6398
6318
660C
660C
7E0C
660C
660C
660C
6318
6318
F1F0
ENDCHAR
STARTCHAR afii10065
ENCODING 193
SWIDTH 416 0
DWIDTH 10 0
BBX 9 12 1 0
BITMAP
3C00
6200
C300
4300
0F00
3B00
6300
C300
C300
C300
E700
7B80
ENDCHAR
STARTCHAR afii10066
ENCODING 194
SWIDTH 458 0
DWIDTH 11 0
BBX 10 17 1 0
BITMAP
00C0
0380
3E00
6000
C000
DF00
E180
C180
C0C0
C0C0
C0C0
C0C0
C0C0
C0C0
C0C0
6180
3F00
ENDCHAR
STARTCHAR afii10088
ENCODING 195
SWIDTH 458 0
DWIDTH 11 0
BBX 10 15 1 -3
BITMAP
F3C0
6180
6180
6180
6180
6180
6180
6180
6180
6180
6180
FFC0
00C0
0040
0040
ENDCHAR
STARTCHAR afii10069
ENCODING 196
SWIDTH 541 0
DWIDTH 13 0
BBX 12 14 1 -2
BITMAP
3FE0
10C0
10C0
10C0
10C0
10C0
10C0
10C0
10C0
10C0
20C0
FFF0
C030
8010
ENDCHAR
STARTCHAR afii10070
ENCODING 197
SWIDTH 416 0
DWIDTH 10 0
BBX 9 12 1 0
BITMAP
1E00
6300
6180
C180
C180
FF80
C000
C000
C000
6180
6300
3E00
ENDCHAR
STARTCHAR afii10086
ENCODING 198
SWIDTH 541 0
DWIDTH 13 0
BBX 12 20 1 -6
BITMAP
0F00
0600
3FC0
4620
C630
C630
C630
C630
C630
C630
C630
C630
4620
3FC0
0600
0600
0600
0600
0600
0F00
ENDCHAR
STARTCHAR afii10068
ENCODING 199
SWIDTH 375 0
DWIDTH 9 0
BBX 8 12 1 0
BITMAP
FF
63
61
61
60
60
60
60
60
60
60
F0
ENDCHAR
STARTCHAR afii10087
ENCODING 200
SWIDTH 416 0
DWIDTH 10 0
BBX 9 12 1 0
BITMAP
F380
6100
3200
3200
1C00
1800
0C00
1C00
2600
2600
4300
E780
ENDCHAR
STARTCHAR afii10074
ENCODING 201
SWIDTH 500 0
DWIDTH 12 0
BBX 11 12 1 0
BITMAP
F1E0
60C0
60C0
60C0
61C0
62C0
64C0
68C0
70C0
60C0
60C0
F1E0
ENDCHAR
STARTCHAR afii10075
ENCODING 202
SWIDTH 500 0
DWIDTH 12 0
BBX 11 15 1 0
BITMAP
3180
1B00
0E00
F1E0
60C0
60C0
60C0
61C0
62C0
64C0
68C0
70C0
60C0
60C0
F1E0
ENDCHAR
STARTCHAR afii10076
ENCODING 203
SWIDTH 458 0
DWIDTH 11 0
BBX 10 12 1 0
BITMAP
F3C0
6180
6300
6600
6C00
7C00
6600
6300
6300
6180
6180
F1C0
ENDCHAR
STARTCHAR afii10077
ENCODING 204
SWIDTH 541 0
DWIDTH 13 0
BBX 12 12 1 0
BITMAP
1FF0
0860
0860
0860
0860
0860
0860
0860
0860
6860
E860
70F0
ENDCHAR
STARTCHAR afii10078
ENCODING 205
SWIDTH 666 0
DWIDTH 16 0
BBX 15 12 1 0
BITMAP
E00E
701C
701C
582C
582C
4C4C
4C4C
468C
468C
430C
430C
E01E
ENDCHAR
STARTCHAR afii10079
ENCODING 206
SWIDTH 458 0
DWIDTH 11 0
BBX 10 12 1 0
BITMAP
F3C0
6180
6180
6180
6180
7F80
6180
6180
6180
6180
6180
F3C0
ENDCHAR
STARTCHAR afii10080
ENCODING 207
SWIDTH 416 0
DWIDTH 10 0
BBX 9 12 1 0
BITMAP
1E00
6300
6300
C180
C180
C180
C180
C180
C180
6180
6300
3E00
ENDCHAR
STARTCHAR afii10081
ENCODING 208
SWIDTH 458 0
DWIDTH 11 0
BBX 10 12 1 0
BITMAP
FFC0
6180
6180
6180
6180
6180
6180
6180
6180
6180
6180
F3C0
ENDCHAR
STARTCHAR afii10097
ENCODING 209
SWIDTH 500 0
DWIDTH 12 0
BBX 11 12 1 0
BITMAP
0FE0
18C0
30C0
30C0
30C0
18C0
0FC0
06C0
0CC0
18C0
30C0
E1E0
ENDCHAR
STARTCHAR afii10082
ENCODING 210
SWIDTH 458 0
DWIDTH 11 0
BBX 11 18 0 -6
BITMAP
7F00
31C0
30C0
3060
3060
3060
3060
3060
3060
30C0
31C0
3F00
3000
3000
3000
3000
3000
FC00
ENDCHAR
STARTCHAR afii10083
ENCODING 211
SWIDTH 375 0
DWIDTH 9 0
BBX 8 12 1 0
BITMAP
1E
73
63
C3
C0
C0
C0
C0
C0
61
63
3E
ENDCHAR
STARTCHAR afii10084
ENCODING 212
SWIDTH 458 0
DWIDTH 11 0
BBX 10 12 1 0
BITMAP
FFC0
CCC0
8C40
0C00
0C00
0C00
0C00
0C00
0C00
0C00
0C00
1E00
ENDCHAR
STARTCHAR afii10085
ENCODING 213
SWIDTH 500 0
DWIDTH 12 0
BBX 12 18 0 -6
BITMAP
F8F0
3020
3040
1840
1880
1880
0C80
0D00
0D00
0600
0600
0600
0400
0400
0400
6800
7800
3000
ENDCHAR
STARTCHAR afii10072
ENCODING 214
SWIDTH 708 0
DWIDTH 17 0
BBX 16 12 1 0
BITMAP
63C6
718E
6996
0990
05A0
0FF0
0DB0
1998
1998
318C
318C
F3CF
ENDCHAR
STARTCHAR afii10067
ENCODING 215
SWIDTH 458 0
DWIDTH 11 0
BBX 10 12 1 0
BITMAP
FE00
6300
6180
6180
6300
7F00
6180
60C0
60C0
60C0
6180
FF00
ENDCHAR
STARTCHAR afii10094
ENCODING 216
SWIDTH 458 0
DWIDTH 11 0
BBX 10 12 1 0
BITMAP
F000
6000
6000
6000
7F00
6180
60C0
60C0
60C0
60C0
6180
FF00
ENDCHAR
STARTCHAR afii10093
ENCODING 217
SWIDTH 666 0
DWIDTH 16 0
BBX 15 12 1 0
BITMAP
F01E
600C
600C
600C
7F0C
618C
60CC
60CC
60CC
60CC
618C
FF1E
ENDCHAR
STARTCHAR afii10073
ENCODING 218
SWIDTH 375 0
DWIDTH 9 0
BBX 8 12 1 0
BITMAP
7C
C6
83
03
06
3C
06
03
03
83
C6
7C
ENDCHAR
STARTCHAR afii10090
ENCODING 219
SWIDTH 625 0
DWIDTH 15 0
BBX 14 12 1 0
BITMAP
F7BC
6318
6318
6318
6318
6318
6318
6318
6318
6318
6318
FFFC
ENDCHAR
STARTCHAR afii10095
ENCODING 220
SWIDTH 375 0
DWIDTH 9 0
BBX 8 12 1 0
BITMAP
BC
C6
83
03
23
3F
23
03
03
83
C6
BC
ENDCHAR
STARTCHAR afii10091
ENCODING 221
SWIDTH 666 0
DWIDTH 16 0
BBX 15 15 1 -3
BITMAP
F7BC
6318
6318
6318
6318
6318
6318
6318
6318
6318
6318
FFFE
0006
0002
0002
ENDCHAR
STARTCHAR afii10089
ENCODING 222
SWIDTH 458 0
DWIDTH 11 0
BBX 10 12 0 0
BITMAP
F3C0
6180
6180
6180
6180
6180
3F80
0180
0180
0180
0180
03C0
ENDCHAR
STARTCHAR afii10092
ENCODING 223
SWIDTH 583 0
DWIDTH 14 0
BBX 13 12 1 0
BITMAP
FE00
CC00
8C00
0C00
0FE0
0C30
0C18
0C18
0C18
0C18
0C30
1FE0
ENDCHAR
STARTCHAR afii10048
ENCODING 224
SWIDTH 958 0
DWIDTH 23 0
BBX 21 17 1 0
BITMAP
FC1F80
3030C0
306060
30C030
30C030
318018
318018
318018
3F8018
318018
318018
318018
30C030
30C030
306060
3030C0
FC1F80
ENDCHAR
STARTCHAR afii10017
ENCODING 225
SWIDTH 833 0
DWIDTH 20 0
BBX 18 17 1 0
BITMAP
004000
00C000
00C000
01E000
016000
013000
023000
023000
041800
041800
07FC00
080C00
080C00
100600
100600
300700
FC1FC0
ENDCHAR
STARTCHAR afii10018
ENCODING 226
SWIDTH 583 0
DWIDTH 14 0
BBX 12 17 1 0
BITMAP
FFE0
3060
3020
3020
3000
3000
3000
3FC0
3060
3030
3030
3030
3030
3030
3030
3060
FFC0
ENDCHAR
STARTCHAR afii10040
ENCODING 227
SWIDTH 708 0
DWIDTH 17 0
BBX 15 20 1 -3
BITMAP
FC7E
3018
3018
3018
3018
3018
3018
3018
3018
3018
3018
3018
3018
3018
3018
3018
FFFE
0006
0002
0002
ENDCHAR
STARTCHAR afii10021
ENCODING 228
SWIDTH 750 0
DWIDTH 18 0
BBX 16 20 1 -3
BITMAP
3FFE
0818
0818
0818
0818
0818
0818
0818
0818
0818
0818
0818
0818
0818
0818
1018
FFFF
C003
8001
8001
ENDCHAR
STARTCHAR afii10022
ENCODING 229
SWIDTH 625 0
DWIDTH 15 0
BBX 13 17 1 0
BITMAP
FFF8
3018
3008
3008
3000
3000
3040
3FC0
3040
3000
3000
3000
3000
3008
3008
3018
FFF8
ENDCHAR
STARTCHAR afii10038
ENCODING 230
SWIDTH 750 0
DWIDTH 18 0
BBX 16 19 1 0
BITMAP
03C0
0180
3FFC
4182
C183
C183
C183
C183
C183
C183
C183
C183
C183
4182
3FFC
0180
0180
0180
07E0
ENDCHAR
STARTCHAR afii10020
ENCODING 231
SWIDTH 541 0
DWIDTH 13 0
BBX 11 17 1 0
BITMAP
FFE0
3060
3020
3020
3000
3000
3000
3000
3000
3000
3000
3000
3000
3000
3000
3000
FC00
ENDCHAR
STARTCHAR afii10039
ENCODING 232
SWIDTH 708 0
DWIDTH 17 0
BBX 15 17 1 0
BITMAP
FE7E
3818
1810
0C20
0C20
0640
0640
0380
0380
03C0
04C0
0460
0860
0830
1038
3018
FC7E
ENDCHAR
STARTCHAR afii10026
ENCODING 233
SWIDTH 708 0
DWIDTH 17 0
BBX 15 17 1 0
BITMAP
FC7E
3018
3018
3018
3018
3018
3038
3058
3098
3118
3218
3418
3818
3018
3018
3018
FC7E
ENDCHAR
STARTCHAR afii10027
ENCODING 234
SWIDTH 708 0
DWIDTH 17 0
BBX 15 20 1 0
BITMAP
0C60
06C0
0380
FC7E
3018
3018
3018
3018
3018
3038
3058
3098
3118
3218
3418
3818
3018
3018
3018
FC7E
ENDCHAR
STARTCHAR afii10028
ENCODING 235
SWIDTH 666 0
DWIDTH 16 0
BBX 15 17 1 0
BITMAP
FC18
303C
3068
30C0
3180
3300
3600
3C00
3C00
3600
3300
3180
30C0
3060
3030
3018
FC3E
ENDCHAR
STARTCHAR afii10029
ENCODING 236
SWIDTH 708 0
DWIDTH 17 0
BBX 15 17 1 0
BITMAP
3FFE
0818
0818
0818
0818
0818
0818
0818
0818
0818
0818
0818
0818
0818
6818
E818
707E
ENDCHAR
STARTCHAR afii10030
ENCODING 237
SWIDTH 833 0
DWIDTH 20 0
BBX 18 17 1 0
BITMAP
F003C0
380700
380700
380B00
2C0B00
2C0B00
2C1300
261300
261300
262300
232300
232300
234300
21C300
21C300
218300
F88FC0
ENDCHAR
STARTCHAR afii10031
ENCODING 238
SWIDTH 708 0
DWIDTH 17 0
BBX 15 17 1 0
BITMAP
FC7E
3018
3018
3018
3018
3018
3018
3018
3FF8
3018
3018
3018
3018
3018
3018
3018
FC7E
ENDCHAR
STARTCHAR afii10032
ENCODING 239
SWIDTH 666 0
DWIDTH 16 0
BBX 14 17 1 0
BITMAP
0FC0
3870
3030
6018
6018
E01C
C00C
C00C
C00C
C00C
C00C
E01C
6018
6018
3030
3870
0FC0
ENDCHAR
STARTCHAR afii10033
ENCODING 240
SWIDTH 708 0
DWIDTH 17 0
BBX 15 17 1 0
BITMAP
FFFE
3018
3018
3018
3018
3018
3018
3018
3018
3018
3018
3018
3018
3018
3018
3018
FC7E
ENDCHAR
STARTCHAR afii10049
ENCODING 241
SWIDTH 750 0
DWIDTH 18 0
BBX 16 17 1 0
BITMAP
07FF
0C0C
1C0C
180C
180C
180C
180C
0C0C
0FFC
070C
060C
0E0C
0C0C
1C0C
180C
380C
F03F
ENDCHAR
STARTCHAR afii10034
ENCODING 242
SWIDTH 625 0
DWIDTH 15 0
BBX 13 17 1 0
BITMAP
FFE0
3030
3038
3018
3018
3018
3018
3018
3038
3030
3FE0
3000
3000
3000
3000
3000
FC00
ENDCHAR
STARTCHAR afii10035
ENCODING 243
SWIDTH 625 0
DWIDTH 15 0
BBX 13 17 1 0
BITMAP
0FC8
3878
3018
6008
6008
E000
C000
C000
C000
C000
C000
E000
6000
6008
3010
3C60
0FC0
ENDCHAR
STARTCHAR afii10036
ENCODING 244
SWIDTH 583 0
DWIDTH 14 0
BBX 12 17 1 0
BITMAP
FFF0
C630
8610
8610
0600
0600
0600
0600
0600
0600
0600
0600
0600
0600
0600
0600
1F80
ENDCHAR
STARTCHAR afii10037
ENCODING 245
SWIDTH 750 0
DWIDTH 18 0
BBX 16 17 1 0
BITMAP
FC1F
3004
3004
1808
1810
0C10
0C20
0620
0640
0380
0380
0100
0100
0200
7200
7400
3800
ENDCHAR
STARTCHAR afii10024
ENCODING 246
SWIDTH 958 0
DWIDTH 23 0
BBX 22 17 1 0
BITMAP
60FC18
F0303C
583068
0C30C0
063180
033300
03B700
03FF00
077B80
0E31C0
0E31C0
1C30E0
1C30E0
383070
383070
703038
F8FC7C
ENDCHAR
STARTCHAR afii10019
ENCODING 247
SWIDTH 583 0
DWIDTH 14 0
BBX 12 17 1 0
BITMAP
FF80
30C0
3060
3060
3060
3060
3060
30C0
3FC0
3060
3030
3030
3030
3030
3030
3060
FFC0
ENDCHAR
STARTCHAR afii10046
ENCODING 248
SWIDTH 625 0
DWIDTH 15 0
BBX 13 17 1 0
BITMAP
FC00
3000
3000
3000
3000
3000
3FE0
3030
3038
3018
3018
3018
3018
3018
3038
3030
FFE0
ENDCHAR
STARTCHAR afii10045
ENCODING 249
SWIDTH 875 0
DWIDTH 21 0
BBX 19 17 1 0
BITMAP
FC07E0
300180
300180
300180
300180
300180
3FE180
303180
303980
301980
301980
301980
301980
301980
303980
303180
FFE7E0
ENDCHAR
STARTCHAR afii10025
ENCODING 250
SWIDTH 541 0
DWIDTH 13 0
BBX 11 17 1 0
BITMAP
BF00
E180
C0C0
80C0
00C0
00C0
00C0
0180
1F80
00C0
0060
0060
0060
8060
C060
E0C0
BF80
ENDCHAR
STARTCHAR afii10042
ENCODING 251
SWIDTH 916 0
DWIDTH 22 0
BBX 20 17 1 0
BITMAP
FDFBF0
3060C0
3060C0
3060C0
3060C0
3060C0
3060C0
3060C0
3060C0
3060C0
3060C0
3060C0
3060C0
3060C0
3060C0
3060C0
FFFFF0
ENDCHAR
STARTCHAR afii10047
ENCODING 252
SWIDTH 625 0
DWIDTH 15 0
BBX 13 17 1 0
BITMAP
BFC0
E060
C030
8030
8018
0018
0018
0818
0FF8
0818
0018
0018
8018
8030
C030
E060
BFC0
ENDCHAR
STARTCHAR afii10043
ENCODING 253
SWIDTH 916 0
DWIDTH 22 0
BBX 20 20 1 -3
BITMAP
FDFBF0
3060C0
3060C0
3060C0
3060C0
3060C0
3060C0
3060C0
3060C0
3060C0
3060C0
3060C0
3060C0
3060C0
3060C0
3060C0
FFFFF0
000030
000010
000010
ENDCHAR
STARTCHAR afii10041
ENCODING 254
SWIDTH 708 0
DWIDTH 17 0
BBX 15 17 1 0
BITMAP
FC7E
3018
3018
3018
3018
3018
3018
3018
1FF8
0018
0018
0018
0018
0018
0018
0018
007E
ENDCHAR
STARTCHAR afii10044
ENCODING 255
SWIDTH 708 0
DWIDTH 17 0
BBX 15 17 1 0
BITMAP
FF00
CC00
8C00
8C00
0C00
0C00
0FF8
0C0C
0C0E
0C06
0C06
0C06
0C06
0C06
0C0E
0C0C
3FF8
ENDCHAR
ENDFONT
